# xmcd
#
# Track frame offsets: 
#        150
#        12440
#        24365
#        39515
#        52169
#        64687
#        77477
#        91571
#        105775
#        118584
#        131351
#        144320
#        158361
#        173936
#        186815
#        198754
#        211179
#        224120
#        236885
#        248563
#        264141
#        277147
#
# Disc length: 3865 seconds
#
# Revision: 0
# Processed by: cddbd v1.5.2PL0 Copyright (c) Steve Scherf et al.
# Submitted via: ExactAudioCopy v1.3
#
DISCID=210f1716
DTITLE=Various Artist - Most Beautiful Country Love Songs
DYEAR=2017
DGENRE=Country
TTITLE0=Hank Williams - Lovesick Blues
TTITLE1=Ernest Tubb - Walking The Floor Over You
TTITLE2=Gene Autry - Tumbling Tumbleweeds
TTITLE3=Hank Williams - Cold Cold Heart
TTITLE4=Marty Brabbins - Couldnt Keep From Crying
TTITLE5=Roy Rogers - Dont Fence Me In 
TTITLE6=Ernest Tubb - Dont Look Now (But Your Broken Heart Is Showing)
TTITLE7=Gene Autry - No One To Call Me Darling
TTITLE8=Hank Williams - Theyll Never Take Her Love From Me
TTITLE9=Marty Robbins - I Wish Somebody Loves Me
TTITLE10=Slim Whitman - Cold Empty Arms
TTITLE11=The Carter Family - Lovers Return 
TTITLE12=Ernest Tubb - Its Been So Long Darling
TTITLE13=Hank Williams - Calling You
TTITLE14=Hank Williams - Why Should We Try Anymore
TTITLE15=Marty Robbins - Tomorrow Youll Be Gone
TTITLE16=Slim Whitman - Ill Do As Much For You Someday
TTITLE17=Gene Autry - Goodbye Little Darlin Goodbye
TTITLE18=Hank Williams - Im Satisfied With You
TTITLE19=Jimmie Rodgers - When The Cactus Is In Bloom
TTITLE20=Roy Rogers - When I Camped Under The Stars
TTITLE21=Slim Whitman - Restless Heart
EXTD=
EXTT0=
EXTT1=
EXTT2=
EXTT3=
EXTT4=
EXTT5=
EXTT6=
EXTT7=
EXTT8=
EXTT9=
EXTT10=
EXTT11=
EXTT12=
EXTT13=
EXTT14=
EXTT15=
EXTT16=
EXTT17=
EXTT18=
EXTT19=
EXTT20=
EXTT21=
PLAYORDER=
